<svg width="1060" height="480" viewBox="0 0 1060 480" xmlns="http://www.w3.org/2000/svg">
<rect width="1060" height="480" fill="#ffffff"/>
<g transform="translate(70,40)"><path d="M 13.3 123.3 A 88 88 0 0 1 21.9 67.4 L 37.9 75.7 A 70 70 0 0 0 31.1 120.2 Z" fill="#2e7d32"/>
<path d="M 25.8 60.7 A 88 88 0 0 1 66.3 26.7 L 73.2 43.3 A 70 70 0 0 0 41.0 70.4 Z" fill="#1565c0"/>
<path d="M 73.5 24.1 A 88 88 0 0 1 126.5 24.1 L 121.0 41.2 A 70 70 0 0 0 79.0 41.2 Z" fill="#f9a825"/>
<path d="M 133.7 26.7 A 88 88 0 0 1 174.2 60.7 L 159.0 70.4 A 70 70 0 0 0 126.8 43.3 Z" fill="#ef6c00"/>
<path d="M 178.1 67.4 A 88 88 0 0 1 186.7 123.3 L 168.9 120.2 A 70 70 0 0 0 162.1 75.7 Z" fill="#c62828"/>
<path d="M 58.0 148.0 L 100 106.3 L 142.0 148.0 Z" fill="#2d6a4f"/>
<path d="M 66.4 120.7 L 100 79.0 L 133.6 120.7 Z" fill="#2d6a4f"/>
<path d="M 75.6 93.4 L 100 51.7 L 124.4 93.4 Z" fill="#2d6a4f"/>
<rect x="94.1" y="148.0" width="11.8" height="12.0" fill="#1b4332"/>
<line x1="100" y1="108" x2="50.9" y2="73.6" stroke="#3a3a3a" stroke-width="7" stroke-linecap="round"/><circle cx="100" cy="108" r="9" fill="#3a3a3a"/><circle cx="100" cy="108" r="4" fill="#fff"/>
<g transform="translate(100,26) scale(1.15)"><path d="M0 -22 C7 -11 15 -7 15 4 C15 13 8 20 0 20 C-8 20 -15 13 -15 4 C-15 -3 -10 -6 -6 -14 C-5 -8 -1 -6 -1 -10 C-1 -14 -1 -18 0 -22 Z" fill="#f77f00"/><path d="M0 -4 C3 1 6 3 6 8 C6 13 3 15 0 15 C-3 15 -6 13 -6 8 C-6 5 -4 3 -3 0 C-2 3 -1 4 0 -4 Z" fill="#ffd166"/></g></g>
<g transform="translate(295,58) scale(0.19)"><path d="M 13.3 123.3 A 88 88 0 0 1 21.9 67.4 L 37.9 75.7 A 70 70 0 0 0 31.1 120.2 Z" fill="#2e7d32"/>
<path d="M 25.8 60.7 A 88 88 0 0 1 66.3 26.7 L 73.2 43.3 A 70 70 0 0 0 41.0 70.4 Z" fill="#1565c0"/>
<path d="M 73.5 24.1 A 88 88 0 0 1 126.5 24.1 L 121.0 41.2 A 70 70 0 0 0 79.0 41.2 Z" fill="#f9a825"/>
<path d="M 133.7 26.7 A 88 88 0 0 1 174.2 60.7 L 159.0 70.4 A 70 70 0 0 0 126.8 43.3 Z" fill="#ef6c00"/>
<path d="M 178.1 67.4 A 88 88 0 0 1 186.7 123.3 L 168.9 120.2 A 70 70 0 0 0 162.1 75.7 Z" fill="#c62828"/>
<path d="M 58.0 148.0 L 100 106.3 L 142.0 148.0 Z" fill="#2d6a4f"/>
<path d="M 66.4 120.7 L 100 79.0 L 133.6 120.7 Z" fill="#2d6a4f"/>
<path d="M 75.6 93.4 L 100 51.7 L 124.4 93.4 Z" fill="#2d6a4f"/>
<rect x="94.1" y="148.0" width="11.8" height="12.0" fill="#1b4332"/>
<line x1="100" y1="108" x2="50.9" y2="73.6" stroke="#3a3a3a" stroke-width="7" stroke-linecap="round"/><circle cx="100" cy="108" r="9" fill="#3a3a3a"/><circle cx="100" cy="108" r="4" fill="#fff"/>
<g transform="translate(100,26) scale(1.15)"><path d="M0 -22 C7 -11 15 -7 15 4 C15 13 8 20 0 20 C-8 20 -15 13 -15 4 C-15 -3 -10 -6 -6 -14 C-5 -8 -1 -6 -1 -10 C-1 -14 -1 -18 0 -22 Z" fill="#f77f00"/><path d="M0 -4 C3 1 6 3 6 8 C6 13 3 15 0 15 C-3 15 -6 13 -6 8 C-6 5 -4 3 -3 0 C-2 3 -1 4 0 -4 Z" fill="#ffd166"/></g></g>
<g transform="translate(430,40)"><path d="M 13.3 123.3 A 88 88 0 0 1 21.9 67.4 L 37.9 75.7 A 70 70 0 0 0 31.1 120.2 Z" fill="#2e7d32"/>
<path d="M 25.8 60.7 A 88 88 0 0 1 66.3 26.7 L 73.2 43.3 A 70 70 0 0 0 41.0 70.4 Z" fill="#1565c0"/>
<path d="M 73.5 24.1 A 88 88 0 0 1 126.5 24.1 L 121.0 41.2 A 70 70 0 0 0 79.0 41.2 Z" fill="#f9a825"/>
<path d="M 133.7 26.7 A 88 88 0 0 1 174.2 60.7 L 159.0 70.4 A 70 70 0 0 0 126.8 43.3 Z" fill="#ef6c00"/>
<path d="M 178.1 67.4 A 88 88 0 0 1 186.7 123.3 L 168.9 120.2 A 70 70 0 0 0 162.1 75.7 Z" fill="#c62828"/>
<path d="M 58.0 148.0 L 100 106.3 L 142.0 148.0 Z" fill="#2d6a4f"/>
<path d="M 66.4 120.7 L 100 79.0 L 133.6 120.7 Z" fill="#2d6a4f"/>
<path d="M 75.6 93.4 L 100 51.7 L 124.4 93.4 Z" fill="#2d6a4f"/>
<rect x="94.1" y="148.0" width="11.8" height="12.0" fill="#1b4332"/>
<g transform="translate(100,26) scale(1.15)"><path d="M0 -22 C7 -11 15 -7 15 4 C15 13 8 20 0 20 C-8 20 -15 13 -15 4 C-15 -3 -10 -6 -6 -14 C-5 -8 -1 -6 -1 -10 C-1 -14 -1 -18 0 -22 Z" fill="#f77f00"/><path d="M0 -4 C3 1 6 3 6 8 C6 13 3 15 0 15 C-3 15 -6 13 -6 8 C-6 5 -4 3 -3 0 C-2 3 -1 4 0 -4 Z" fill="#ffd166"/></g></g>
<g transform="translate(655,58) scale(0.19)"><path d="M 13.3 123.3 A 88 88 0 0 1 21.9 67.4 L 37.9 75.7 A 70 70 0 0 0 31.1 120.2 Z" fill="#2e7d32"/>
<path d="M 25.8 60.7 A 88 88 0 0 1 66.3 26.7 L 73.2 43.3 A 70 70 0 0 0 41.0 70.4 Z" fill="#1565c0"/>
<path d="M 73.5 24.1 A 88 88 0 0 1 126.5 24.1 L 121.0 41.2 A 70 70 0 0 0 79.0 41.2 Z" fill="#f9a825"/>
<path d="M 133.7 26.7 A 88 88 0 0 1 174.2 60.7 L 159.0 70.4 A 70 70 0 0 0 126.8 43.3 Z" fill="#ef6c00"/>
<path d="M 178.1 67.4 A 88 88 0 0 1 186.7 123.3 L 168.9 120.2 A 70 70 0 0 0 162.1 75.7 Z" fill="#c62828"/>
<path d="M 58.0 148.0 L 100 106.3 L 142.0 148.0 Z" fill="#2d6a4f"/>
<path d="M 66.4 120.7 L 100 79.0 L 133.6 120.7 Z" fill="#2d6a4f"/>
<path d="M 75.6 93.4 L 100 51.7 L 124.4 93.4 Z" fill="#2d6a4f"/>
<rect x="94.1" y="148.0" width="11.8" height="12.0" fill="#1b4332"/>
<g transform="translate(100,26) scale(1.15)"><path d="M0 -22 C7 -11 15 -7 15 4 C15 13 8 20 0 20 C-8 20 -15 13 -15 4 C-15 -3 -10 -6 -6 -14 C-5 -8 -1 -6 -1 -10 C-1 -14 -1 -18 0 -22 Z" fill="#f77f00"/><path d="M0 -4 C3 1 6 3 6 8 C6 13 3 15 0 15 C-3 15 -6 13 -6 8 C-6 5 -4 3 -3 0 C-2 3 -1 4 0 -4 Z" fill="#ffd166"/></g></g>
<g transform="translate(790,40)"><rect x="-14" y="-16" width="228" height="228" rx="50" fill="#0f2a1d"/><path d="M 13.3 123.3 A 88 88 0 0 1 21.9 67.4 L 37.9 75.7 A 70 70 0 0 0 31.1 120.2 Z" fill="#2e7d32"/>
<path d="M 25.8 60.7 A 88 88 0 0 1 66.3 26.7 L 73.2 43.3 A 70 70 0 0 0 41.0 70.4 Z" fill="#1565c0"/>
<path d="M 73.5 24.1 A 88 88 0 0 1 126.5 24.1 L 121.0 41.2 A 70 70 0 0 0 79.0 41.2 Z" fill="#f9a825"/>
<path d="M 133.7 26.7 A 88 88 0 0 1 174.2 60.7 L 159.0 70.4 A 70 70 0 0 0 126.8 43.3 Z" fill="#ef6c00"/>
<path d="M 178.1 67.4 A 88 88 0 0 1 186.7 123.3 L 168.9 120.2 A 70 70 0 0 0 162.1 75.7 Z" fill="#c62828"/>
<path d="M 58.0 148.0 L 100 106.3 L 142.0 148.0 Z" fill="#2d6a4f"/>
<path d="M 66.4 120.7 L 100 79.0 L 133.6 120.7 Z" fill="#2d6a4f"/>
<path d="M 75.6 93.4 L 100 51.7 L 124.4 93.4 Z" fill="#2d6a4f"/>
<rect x="94.1" y="148.0" width="11.8" height="12.0" fill="#1b4332"/>
<line x1="100" y1="108" x2="50.9" y2="73.6" stroke="#f5ecd7" stroke-width="7" stroke-linecap="round"/><circle cx="100" cy="108" r="9" fill="#f5ecd7"/><circle cx="100" cy="108" r="4" fill="#0f2a1d"/>
<g transform="translate(100,26) scale(1.15)"><path d="M0 -22 C7 -11 15 -7 15 4 C15 13 8 20 0 20 C-8 20 -15 13 -15 4 C-15 -3 -10 -6 -6 -14 C-5 -8 -1 -6 -1 -10 C-1 -14 -1 -18 0 -22 Z" fill="#f77f00"/><path d="M0 -4 C3 1 6 3 6 8 C6 13 3 15 0 15 C-3 15 -6 13 -6 8 C-6 5 -4 3 -3 0 C-2 3 -1 4 0 -4 Z" fill="#ffd166"/></g></g>
<g transform="translate(1006,58) scale(0.19)"><rect x="-14" y="-16" width="228" height="228" rx="50" fill="#0f2a1d"/><path d="M 13.3 123.3 A 88 88 0 0 1 21.9 67.4 L 37.9 75.7 A 70 70 0 0 0 31.1 120.2 Z" fill="#2e7d32"/>
<path d="M 25.8 60.7 A 88 88 0 0 1 66.3 26.7 L 73.2 43.3 A 70 70 0 0 0 41.0 70.4 Z" fill="#1565c0"/>
<path d="M 73.5 24.1 A 88 88 0 0 1 126.5 24.1 L 121.0 41.2 A 70 70 0 0 0 79.0 41.2 Z" fill="#f9a825"/>
<path d="M 133.7 26.7 A 88 88 0 0 1 174.2 60.7 L 159.0 70.4 A 70 70 0 0 0 126.8 43.3 Z" fill="#ef6c00"/>
<path d="M 178.1 67.4 A 88 88 0 0 1 186.7 123.3 L 168.9 120.2 A 70 70 0 0 0 162.1 75.7 Z" fill="#c62828"/>
<path d="M 58.0 148.0 L 100 106.3 L 142.0 148.0 Z" fill="#2d6a4f"/>
<path d="M 66.4 120.7 L 100 79.0 L 133.6 120.7 Z" fill="#2d6a4f"/>
<path d="M 75.6 93.4 L 100 51.7 L 124.4 93.4 Z" fill="#2d6a4f"/>
<rect x="94.1" y="148.0" width="11.8" height="12.0" fill="#1b4332"/>
<line x1="100" y1="108" x2="50.9" y2="73.6" stroke="#f5ecd7" stroke-width="7" stroke-linecap="round"/><circle cx="100" cy="108" r="9" fill="#f5ecd7"/><circle cx="100" cy="108" r="4" fill="#fff"/>
<g transform="translate(100,26) scale(1.15)"><path d="M0 -22 C7 -11 15 -7 15 4 C15 13 8 20 0 20 C-8 20 -15 13 -15 4 C-15 -3 -10 -6 -6 -14 C-5 -8 -1 -6 -1 -10 C-1 -14 -1 -18 0 -22 Z" fill="#f77f00"/><path d="M0 -4 C3 1 6 3 6 8 C6 13 3 15 0 15 C-3 15 -6 13 -6 8 C-6 5 -4 3 -3 0 C-2 3 -1 4 0 -4 Z" fill="#ffd166"/></g></g>
<text x="170" y="300" text-anchor="middle" font-family="Arial" font-size="20" font-weight="bold" fill="#21272a">1 — Faithful Cleanup</text>
<text x="170" y="324" text-anchor="middle" font-family="Arial" font-size="14" fill="#5b6570">same logo, flat + crisp</text>
<text x="530" y="300" text-anchor="middle" font-family="Arial" font-size="20" font-weight="bold" fill="#21272a">2 — Bold Minimal</text>
<text x="530" y="324" text-anchor="middle" font-family="Arial" font-size="14" fill="#5b6570">no needle, chunkiest</text>
<text x="890" y="300" text-anchor="middle" font-family="Arial" font-size="20" font-weight="bold" fill="#21272a">3 — Badge</text>
<text x="890" y="324" text-anchor="middle" font-family="Arial" font-size="14" fill="#5b6570">for favicon / app icon</text>
<g transform="translate(310,360) scale(0.42)"><path d="M 13.3 123.3 A 88 88 0 0 1 21.9 67.4 L 37.9 75.7 A 70 70 0 0 0 31.1 120.2 Z" fill="#2e7d32"/>
<path d="M 25.8 60.7 A 88 88 0 0 1 66.3 26.7 L 73.2 43.3 A 70 70 0 0 0 41.0 70.4 Z" fill="#1565c0"/>
<path d="M 73.5 24.1 A 88 88 0 0 1 126.5 24.1 L 121.0 41.2 A 70 70 0 0 0 79.0 41.2 Z" fill="#f9a825"/>
<path d="M 133.7 26.7 A 88 88 0 0 1 174.2 60.7 L 159.0 70.4 A 70 70 0 0 0 126.8 43.3 Z" fill="#ef6c00"/>
<path d="M 178.1 67.4 A 88 88 0 0 1 186.7 123.3 L 168.9 120.2 A 70 70 0 0 0 162.1 75.7 Z" fill="#c62828"/>
<path d="M 58.0 148.0 L 100 106.3 L 142.0 148.0 Z" fill="#2d6a4f"/>
<path d="M 66.4 120.7 L 100 79.0 L 133.6 120.7 Z" fill="#2d6a4f"/>
<path d="M 75.6 93.4 L 100 51.7 L 124.4 93.4 Z" fill="#2d6a4f"/>
<rect x="94.1" y="148.0" width="11.8" height="12.0" fill="#1b4332"/>
<line x1="100" y1="108" x2="50.9" y2="73.6" stroke="#3a3a3a" stroke-width="7" stroke-linecap="round"/><circle cx="100" cy="108" r="9" fill="#3a3a3a"/><circle cx="100" cy="108" r="4" fill="#fff"/>
<g transform="translate(100,26) scale(1.15)"><path d="M0 -22 C7 -11 15 -7 15 4 C15 13 8 20 0 20 C-8 20 -15 13 -15 4 C-15 -3 -10 -6 -6 -14 C-5 -8 -1 -6 -1 -10 C-1 -14 -1 -18 0 -22 Z" fill="#f77f00"/><path d="M0 -4 C3 1 6 3 6 8 C6 13 3 15 0 15 C-3 15 -6 13 -6 8 C-6 5 -4 3 -3 0 C-2 3 -1 4 0 -4 Z" fill="#ffd166"/></g></g>
<text x="420" y="420" font-family="Arial" font-size="30" font-weight="800" fill="#0f2a1d">BeWildfireAware</text>
<text x="530" y="465" text-anchor="middle" font-family="Arial" font-size="14" fill="#5b6570">small marks show favicon size · gauge ring uses the site's real 5 danger colors · needle can point at today's danger</text>
</svg>